<?xml version="1.0" standalone="no"?>
<!DOCTYPE svg PUBLIC "-//W3C//DTD SVG 20010904//EN"
 "http://www.w3.org/TR/2001/REC-SVG-20010904/DTD/svg10.dtd">
<svg version="1.0" xmlns="http://www.w3.org/2000/svg"
 width="10000.000000pt" height="10000.000000pt" viewBox="0 0 10000.000000 10000.000000"
 preserveAspectRatio="xMidYMid meet">

<g transform="translate(0.000000,10000.000000) scale(0.100000,-0.100000)"
fill="rgba(255, 255, 255, 0.8)" stroke="none">
<path d="M0 99550 l0 -450 400 0 400 0 0 450 0 450 -400 0 -400 0 0 -450z"/>
<path d="M99200 99550 l0 -450 400 0 400 0 0 450 0 450 -400 0 -400 0 0 -450z"/>
<path d="M63720 79849 c-1744 -58 -3375 -232 -5015 -533 -6257 -1149 -11967
-4083 -16550 -8502 -1254 -1209 -2452 -2567 -3490 -3954 -392 -525 -448 -597
-1354 -1770 -2852 -3691 -4692 -6056 -5430 -6980 -306 -383 -423 -511 -936
-1025 -2283 -2287 -4443 -3797 -6710 -4690 -2274 -897 -4666 -1145 -7205 -749
-4082 636 -6834 2031 -10715 5430 -1633 1430 -3307 3051 -6192 5994 l-123 125
0 -18922 0 -18923 50000 0 50001 0 -4 10633 c-3 7835 -7 10704 -15 10907 -6
151 -19 421 -27 600 -319 6645 -2576 12944 -6547 18268 -793 1064 -1618 2044
-2572 3057 -406 430 -1208 1220 -1686 1659 -2855 2625 -6158 4774 -9757 6347
-3818 1669 -7951 2674 -12168 2959 -288 19 -675 40 -1125 61 -298 14 -2041 20
-2380 8z"/>
<path d="M0 450 l0 -450 400 0 400 0 0 450 0 450 -400 0 -400 0 0 -450z"/>
<path d="M99200 450 l0 -450 400 0 400 0 0 450 0 450 -400 0 -400 0 0 -450z"/>
</g>
</svg>
